<svg xmlns="http://www.w3.org/2000/svg" viewBox="0 0 1280 720">
  <defs>
    <linearGradient id="bg" x1="0" y1="0" x2="1" y2="1">
      <stop offset="0" stop-color="#10161f"/>
      <stop offset="1" stop-color="#05070a"/>
    </linearGradient>
    <linearGradient id="green" x1="0" y1="0" x2="1" y2="1">
      <stop offset="0" stop-color="#42f5a7"/>
      <stop offset="1" stop-color="#00a86b"/>
    </linearGradient>
  </defs>
  <rect width="1280" height="720" fill="url(#bg)"/>
  <rect x="72" y="70" width="1136" height="580" rx="28" fill="#151b24" stroke="#2f3a4c" stroke-width="2"/>
  <text x="112" y="138" fill="#9ca9ba" font-family="Inter, Arial, sans-serif" font-size="24" letter-spacing="4">UMBREL ETC SOLO</text>
  <text x="112" y="194" fill="#eef2f7" font-family="Inter, Arial, sans-serif" font-size="52" font-weight="700">ETC Solo Node + Pool</text>
  <rect x="112" y="256" width="238" height="132" rx="12" fill="#0b0e13" stroke="#263244"/>
  <rect x="374" y="256" width="238" height="132" rx="12" fill="#0b0e13" stroke="#263244"/>
  <rect x="636" y="256" width="238" height="132" rx="12" fill="#0b0e13" stroke="#263244"/>
  <text x="136" y="304" fill="#9ca9ba" font-family="Inter, Arial, sans-serif" font-size="22">Hashrate</text>
  <text x="136" y="354" fill="#eef2f7" font-family="Inter, Arial, sans-serif" font-size="38" font-weight="700">3.30 GH/s</text>
  <text x="398" y="304" fill="#9ca9ba" font-family="Inter, Arial, sans-serif" font-size="22">Workers</text>
  <text x="398" y="354" fill="#eef2f7" font-family="Inter, Arial, sans-serif" font-size="38" font-weight="700">2 ASICs</text>
  <text x="660" y="304" fill="#9ca9ba" font-family="Inter, Arial, sans-serif" font-size="22">Mode</text>
  <text x="660" y="354" fill="#eef2f7" font-family="Inter, Arial, sans-serif" font-size="38" font-weight="700">Solo</text>
  <rect x="112" y="430" width="762" height="122" rx="12" fill="#0b0e13" stroke="#263244"/>
  <text x="140" y="482" fill="#9ca9ba" font-family="Inter, Arial, sans-serif" font-size="22">Stratum endpoint</text>
  <text x="140" y="526" fill="#eef2f7" font-family="Consolas, monospace" font-size="30">stratum+tcp://umbrel.local:8008</text>
  <circle cx="1048" cy="352" r="112" fill="#10161f" stroke="#2f3a4c" stroke-width="8"/>
  <path d="M1048 224 978 349l70-32 70 32-70-125Z" fill="url(#green)"/>
  <path d="m978 370 70 41 70-41-70 94-70-94Z" fill="#9fe8c7"/>
  <circle cx="1138" cy="244" r="34" fill="#111827" stroke="#fff" stroke-opacity=".8" stroke-width="7"/>
  <path d="M1122 244c0-12 7-20 16-20s16 8 16 20-7 20-16 20-16-8-16-20Z" fill="#fff"/>
</svg>
