<svg xmlns="http://www.w3.org/2000/svg" viewBox="0 0 512 512">
  <defs>
    <linearGradient id="bg" x1="0" y1="0" x2="1" y2="1">
      <stop offset="0" stop-color="#151b24"/>
      <stop offset="1" stop-color="#0b0e13"/>
    </linearGradient>
    <linearGradient id="etc" x1="0" y1="0" x2="0" y2="1">
      <stop offset="0" stop-color="#42f5a7"/>
      <stop offset="1" stop-color="#00a86b"/>
    </linearGradient>
  </defs>
  <rect width="512" height="512" rx="96" fill="url(#bg)"/>
  <circle cx="256" cy="256" r="176" fill="#10161f" stroke="#2f3a4c" stroke-width="10"/>
  <path d="M256 78 145 262l111-52 111 52L256 78Z" fill="url(#etc)"/>
  <path d="m145 286 111 65 111-65-111 148-111-148Z" fill="#9fe8c7"/>
  <path d="m176 264 80-38 80 38-80 46-80-46Z" fill="#e5c35a"/>
  <circle cx="378" cy="142" r="38" fill="#111827" stroke="#ffffff" stroke-opacity=".8" stroke-width="8"/>
  <path d="M360 142c0-13 8-22 18-22s18 9 18 22-8 22-18 22-18-9-18-22Z" fill="#fff"/>
</svg>
